<svg xml:space="preserve" style="enable-background:new 0 0 1024 1024;" viewBox="0 0 1024 1024" y="0px" x="0px" xmlns:xlink="http://www.w3.org/1999/xlink" xmlns="http://www.w3.org/2000/svg" id="图层_1" version="1.1">
<style type="text/css">
	.st0{fill:#DFEAEA;}
	.st1{fill:#7A2710;}
	.st2{opacity:0.59;fill:#A3C6C5;}
	.st3{fill:#FFA84A;}
	.st4{fill:#FFFFFF;}
	.st5{fill:none;stroke:#7A2710;stroke-width:8.4837;stroke-linecap:round;stroke-linejoin:round;stroke-miterlimit:10;}
</style>
<g>
	<g>
		<path d="M516.08,588.09c-26.08,0-45.86-4.81-58.79-14.29c-58.64-42.97-73.78-124.15-74.4-127.58
			c-0.47-2.63,0.98-5.25,3.47-6.25c0,0,0.63-0.26,1.78-0.64c23.9-9.08,108.14-42.05,196.12-87.68
			c58.45-30.34,106.33-59.89,142.3-87.83c20.67-16,37.7-31.68,50.64-46.62c1.09-1.26,2.66-1.95,4.28-1.95c0.46,0,0.93,0.06,1.4,0.18
			c2.08,0.53,3.67,2.18,4.13,4.28c0.29,1.31,6.99,32.63,6.93,79.22c-0.06,43-6.23,107.47-35.27,170.42
			c-12.41,26.84-28.03,51.55-46.44,73.45c-0.62,0.74-1.42,1.3-2.32,1.65C705.22,546.2,594.26,588.09,516.08,588.09z" class="st0"></path>
		<path d="M781.48,220.89c0,0,27.45,126-27.96,246.07c-11.41,24.68-26.26,49.14-45.63,72.18
			c0,0-113.78,43.3-191.81,43.3c-22.76,0-42.47-3.68-55.44-13.2c-57.49-42.13-72.18-124.02-72.18-124.02s0.57-0.23,1.58-0.57
			c12.93-4.91,102.96-39.31,196.82-87.99c50.38-26.15,101.94-56.36,143.17-88.39C750.03,252.8,767.59,236.93,781.48,220.89
			 M781.48,209.58c-3.24,0-6.37,1.39-8.55,3.91c-12.7,14.66-29.46,30.08-49.82,45.84c-35.72,27.74-83.31,57.11-141.46,87.29
			c-87.59,45.43-171.46,78.27-195.42,87.38c-1.1,0.37-1.78,0.64-1.97,0.72c-4.98,1.99-7.88,7.22-6.93,12.5
			c0.16,0.89,4.02,22.02,15.24,48.61c15,35.56,36.23,64.1,61.38,82.54c14.11,10.35,34.43,15.38,62.13,15.38
			c33.4,0,76.56-7.43,128.25-22.08c38.24-10.83,66.4-21.51,67.58-21.96c1.8-0.69,3.4-1.82,4.64-3.29
			c18.73-22.28,34.63-47.42,47.24-74.71c13.04-28.26,22.66-59.15,28.6-91.82c4.74-26.05,7.16-53.29,7.2-80.97
			c0.06-47.19-6.77-79.1-7.06-80.43c-0.91-4.18-4.11-7.5-8.26-8.55C783.35,209.69,782.41,209.58,781.48,209.58L781.48,209.58z" class="st1"></path>
	</g>
	<path d="M753.53,466.96c-46.37,23.83-104.82,53.77-106.29,53.77c-2.43,0-233.3-25.53-257.19-76.07
		c12.93-4.91,102.96-39.31,196.82-87.99c0,0,107.5-11.66,147.46,2.99c16.78-10.92,1.81-60.37-4.29-91.38
		c19.99-15.47,37.56-31.34,51.45-47.38C781.48,220.89,808.93,346.89,753.53,466.96z" class="st2"></path>
	<g>
		<path d="M869.32,636.48c-1.3,0-2.62-0.12-3.93-0.36l-137.54-25.22c-1.56-0.29-2.92-1.21-3.76-2.55
			c-0.84-1.34-1.09-2.97-0.67-4.5l29.2-107.72c0.51-1.89,1.96-3.38,3.84-3.94c0.53-0.16,1.08-0.24,1.62-0.24
			c1.37,0,2.71,0.49,3.76,1.43l30.58,27.14l42,37.23l47.78,42.39c6.83,5.66,9.22,14.32,6.25,22.63
			C885.45,631.09,877.95,636.48,869.32,636.48z" class="st3"></path>
		<path d="M758.05,497.6l30.58,27.14l42.01,37.23l47.86,42.46c11.09,9.09,4.08,26.39-9.18,26.39
			c-0.94,0-1.91-0.09-2.91-0.27l-51.61-9.46l-61.34-11.25l-24.6-4.51L758.05,497.6 M758.05,486.29c-1.08,0-2.17,0.16-3.23,0.47
			c-3.75,1.12-6.66,4.1-7.68,7.88l-29.2,107.72c-0.83,3.05-0.34,6.31,1.35,8.99c1.69,2.68,4.42,4.52,7.53,5.09l24.6,4.51
			l61.34,11.25l51.61,9.46c1.65,0.3,3.32,0.46,4.95,0.46c11.05,0,20.65-6.85,24.44-17.46c3.73-10.43,0.63-21.71-7.89-28.83
			l-47.71-42.33l-42.01-37.24l-30.57-27.14C763.46,487.28,760.78,486.29,758.05,486.29L758.05,486.29z" class="st1"></path>
	</g>
	<g>
		<path d="M218.67,808.77c-55.99,0-81.72-26.68-82.79-27.81c-1.79-1.9-2.04-4.79-0.61-6.98
			c19.69-30.04,55.3-74.27,105.85-131.44c31.14-35.26,62.53-69.3,86.37-94.75L276.2,583.3c-0.98,0.68-2.1,1.01-3.22,1.01
			c-1.68,0-3.35-0.75-4.46-2.17l-0.62-0.79c-31.34-40.03-83.78-107.02-93.82-167.64c-5.84-35.4,9.85-79.81,31.67-89.66
			c2.76-1.23,5.68-1.86,8.68-1.86c6.11,0,11.85,2.62,15.76,7.2c2.36,2.71,4.87,5.46,7.44,8.12
			c91.75,95.41,282.78,142.75,290.87,144.72c3.48,0.85,6.89,1.28,10.13,1.28c8.72,0,15.83-3.07,21.52-7.35
			c-9.2,3.46-16.54,4.18-17.14,4.23c-0.17,0.02-0.34,0.02-0.51,0.02c-1.72,0-3.37-0.79-4.44-2.16c-1.18-1.5-1.53-3.5-0.91-5.32
			c18.02-53.02,67.69-88.64,123.61-88.64c14.94,0,29.72,2.57,43.93,7.64c7.28,2.62,14.38,5.87,21.14,9.65
			c29.12,16.38,50.29,43.33,59.65,75.91c9.19,32,6.25,66.51-8.27,97.17c-19.32,40.8-53.18,64.2-92.88,64.2
			c-22.29,0-44.79-7.53-64.36-21.16c6.96,9.35,18.57,19.11,37.73,23.39c1.71,0.38,3.15,1.54,3.89,3.13s0.71,3.43-0.1,4.99
			c-11.04,21.36-34.46,36.7-69.62,45.6c-28.01,7.09-57.5,8.57-77.3,8.57c-11.38,0-18.54-0.5-18.84-0.52
			c-2.35-0.17-4.35-1.77-5.02-4.03c-0.67-2.26,0.12-4.69,2-6.12c20.74-15.75,30.35-42.41,34.78-62.5
			c-13.94,23.06-27.5,44.56-42.9,61.41l-0.88,1.06c-28.13,33.93-48.59,58.61-88.57,65.87c-20.77,26.78-48.21,41.49-77.49,41.49
			c-8.92,0-18.04-1.36-27.12-4.05C265.14,804.47,240.97,808.77,218.67,808.77z" class="st4"></path>
		<path d="M214.45,327.85c4.32,0,8.54,1.8,11.46,5.22c2.46,2.84,5.02,5.63,7.67,8.37
			c85.21,88.61,254.62,136.8,293.59,146.29c4.07,0.99,7.89,1.44,11.47,1.44c31.75,0,44.67-35.08,45.46-37.3
			c-14.7,20.47-41.58,22.89-41.58,22.89c17.68-52.02,66.22-84.8,118.25-84.8c13.94,0,28.12,2.35,42.03,7.31
			c6.84,2.47,13.63,5.54,20.28,9.26c58.05,32.65,77.54,105.54,49.03,165.73c-19.99,42.21-53.48,60.97-87.77,60.97
			c-28.52,0-57.59-12.97-79.91-36.22c0,0,6.47,39.44,52.05,49.63c-23.64,45.74-105,51.11-141.89,51.11c-11.31,0-18.44-0.5-18.44-0.5
			c38.89-29.54,40.75-93.54,40.75-93.54c-18.88,31.07-36.33,62.14-56.56,84.24c-29.12,35.12-48.51,58.98-88.33,65.45
			c-18.91,25.22-44.76,41.04-74.34,41.04c-8.77,0-17.86-1.39-27.2-4.34c-28.09,9.56-51.94,13.05-71.8,13.05
			c-54.19,0-78.67-26.03-78.67-26.03c22.47-34.28,63.86-83.86,105.35-130.8c58.33-66.05,116.84-127.03,123.26-133.73l0.46-0.47
			l-96.1,66.56c-31.35-40.05-83.45-106.28-93.31-165.87c-5.35-32.42,8.84-74.75,28.42-83.59
			C210.14,328.29,212.3,327.85,214.45,327.85 M214.45,316.53c-3.8,0-7.49,0.79-10.97,2.34c-16.68,7.53-25.74,28.07-29.66,39.65
			c-6.22,18.39-8.16,38.84-5.31,56.1c10.27,62.05,63.27,129.76,94.94,170.21l0.62,0.79c2.22,2.84,5.55,4.34,8.91,4.34
			c2.23,0,4.47-0.66,6.43-2.01l8.7-6.03c-16.25,17.71-33.79,37.1-51.25,56.87c-50.72,57.37-86.5,101.81-106.34,132.08
			c-2.87,4.37-2.36,10.14,1.22,13.95c1.14,1.21,28.5,29.59,86.91,29.59c22.41,0,46.62-4.21,72-12.51c9.03,2.52,18.1,3.79,27,3.79
			c30.44,0,58.91-14.87,80.62-41.99c39.17-7.79,59.91-31.43,86.86-63.88c0.05,0.2,0.1,0.41,0.16,0.61
			c1.34,4.51,5.34,7.72,10.04,8.05c0.31,0.02,7.66,0.53,19.24,0.53c20.12,0,50.11-1.52,78.69-8.75
			c36.79-9.31,61.44-25.62,73.25-48.48c1.39-2.7,1.64-5.82,0.72-8.67c5.68,0.91,11.39,1.38,17.1,1.38c41.98,0,77.7-24.58,98-67.44
			c15.11-31.9,18.17-67.83,8.6-101.15c-9.77-34.02-31.89-62.17-62.3-79.28c-7.05-3.94-14.44-7.32-21.99-10.04
			c-14.87-5.3-30.28-7.98-45.87-7.98c-58.34,0-110.16,37.16-128.97,92.48c-0.67,1.96-0.77,4.02-0.36,5.99
			c-0.53-0.11-1.07-0.23-1.61-0.36c-8.02-1.95-197.5-48.91-288.12-143.14c-2.51-2.6-4.95-5.26-7.26-7.92
			C229.49,319.86,222.2,316.53,214.45,316.53L214.45,316.53z" class="st1"></path>
	</g>
	<path d="M369.08,512.09l-96.1,66.56c-31.35-40.05-83.45-106.28-93.31-165.87c-5.35-32.42,8.84-74.75,28.42-83.58
		c6.14-2.74,13.44-1.26,17.81,3.86c2.47,2.84,5.02,5.63,7.67,8.37c-11.81,21.58-24.47,57.07,0.28,105.21
		C274.15,525.12,369.08,512.09,369.08,512.09z" class="st0"></path>
	<path d="M198.92,331.79c0,0,33.89,44.76,70.28,65.47" class="st5"></path>
	<path d="M178.54,364.99c0,0,35.48,50.14,73.58,73.34" class="st5"></path>
	<path d="M772.11,572.23c-36.6,77.32-118.49,75.96-167.68,24.74c0,0,6.49,39.48,52.07,49.64
		c-30.89,59.75-160.34,50.6-160.34,50.6c38.86-29.54,40.72-93.52,40.72-93.52c-18.86,31.06-36.31,62.12-56.53,84.21
		c-29.14,35.13-48.51,59.02-88.33,65.46c-24.51,32.7-60.71,49.59-101.54,36.71c-104.76,35.64-150.45-12.99-150.45-12.99
		c22.42-34.28,63.82-83.87,105.33-130.8c1.64,9.49,0.9,18.35,0.9,18.35c-41.62,23.27-40.21,71.39-36.14,96.46
		c1.02-16.72,11.07-37.05,11.07-37.05c21.4,43.88,91.61,31.4,91.61,31.4c-17.56-25.02-3.9-53.88-3.9-53.88
		c51.34,42.81,94.26,11.24,94.26,11.24c-51.02-13.88-47.08-79.14-47.08-79.14c90.14,49.64,191.37-53.18,191.37-53.18
		s-14.34,50.55,0,71.44c14.4,20.9,54.27-5.99,54.27-5.99c-31.06-25.87-19.09-73.76-19.09-73.76s44.05,43.15,128.6,0
		c69.13-35.3,14.01-138.37-8.41-174.91c6.83,2.43,13.61,5.53,20.27,9.26C781.15,439.17,800.63,512.02,772.11,572.23z" class="st0"></path>
	<circle r="27.25" cy="478.61" cx="694.36" class="st1"></circle>
	<path d="M308.89,712.8c0,0,34.87,41.67,86.48,39.97l-7.08,22.92C388.29,775.69,311.41,768.32,308.89,712.8z" class="st1"></path>
	<path d="M374.43,651.92c0,0,42.09,40.96,99.92,48.82l-6.34,17.81C468.01,718.55,381.16,698.61,374.43,651.92z" class="st1"></path>
	<path d="M221.21,750.29c0,0,34.17,28.17,78.14,43.1l-23.67,9.19C275.68,802.58,223.99,785.03,221.21,750.29z" class="st1"></path>
	<path d="M711.24,317.62c0,0,38.54,21.82,84.43,28.9l-9.4,21.41C786.27,367.92,720.01,351.35,711.24,317.62z" class="st1"></path>
</g>
</svg>
