<svg t="1641209366814" class="icon" viewBox="0 0 1024 1024" version="1.1" xmlns="http://www.w3.org/2000/svg" p-id="2053" width="200" height="200"><path d="M891.52 529.53088L816.64 483.2l-21.76 76.16-111.36-0.64-30.72-71.04-74.88 35.84-81.32096-85.45792 34.37568-68.6336-70.81472-25.10848-2.56-103.68H117.76c-36.7616 0-66.56 29.7984-66.56 66.56v450.56c0 36.7616 29.7984 66.56 66.56 66.56h788.48c36.7616 0 66.56-29.7984 66.56-66.56V448.64l-81.28 80.89088z" fill="#7C75DE" p-id="2054"></path><path d="M943.11936 244.9152l-38.39488-8.53504a176.16896 176.16896 0 0 0-11.39712-27.52512l20.76672-34.5856c7.77216-12.41088 11.66336-30.63296 0-42.3168l-21.16608-21.1456c-5.69856-5.7344-13.36832-8.14592-21.10976-8.14592-8.0128 0-16.12288 2.62656-22.17472 6.8352l-33.67936 21.44256a180.69504 180.69504 0 0 0-27.33056-11.48928l-8.63232-38.84544c-2.57536-14.24896-15.03232-29.67552-31.55456-29.67552h-29.90592c-16.51712 0-26.64448 15.65696-29.91616 29.91616l-9.62048 38.36416a178.62144 178.62144 0 0 0-29.11232 12.25216l-34.51392-21.96992c-6.07232-4.20864-14.16704-6.8352-22.1952-6.8352-7.72096 0-15.38048 2.41152-21.10464 8.14592l-21.15584 21.1456c-11.67872 11.67872-7.7568 29.90592 0 42.3168l21.85728 36.4032c-4.09088 8.28416-7.74144 16.78336-10.54208 25.70752l-38.3744 8.53504c-14.26432 2.57024-29.68064 15.0272-29.68064 31.54944v29.90592c0 16.52736 15.65696 26.6496 29.90592 29.91616l38.87104 9.69216a177.26976 177.26976 0 0 0 9.8304 23.84384l-21.86752 36.4544c-7.7568 12.38528-11.64288 30.60736 0 42.2912l21.18144 21.16096c5.69856 5.72416 13.35808 8.15616 21.08928 8.15616 8.01792 0 16.13312-2.62144 22.18496-6.82496l34.59072-22.05696a178.2016 178.2016 0 0 0 29.30688 12.33408l9.58464 38.27712c3.27168 14.2592 13.38368 29.91616 29.90592 29.91616h29.91104c16.53248 0 28.98432-15.44192 31.55968-29.67552l8.6272-38.9632a177.08544 177.08544 0 0 0 27.01824-11.32544l33.76128 21.49888c6.05184 4.20864 14.16192 6.82496 22.17472 6.82496 7.74144 0 15.4112-2.43712 21.10976-8.15616l21.16608-21.16096c11.66336-11.68384 7.77216-29.90592 0-42.2912l-20.79744-34.63168a180.25472 180.25472 0 0 0 10.72128-25.66656l38.87104-9.69216c14.25408-3.27168 29.91104-13.3888 29.91104-29.91616v-29.90592c0-16.52224-15.42144-28.97408-29.68064-31.54944z m-209.60768 119.45984c-38.01088 0-68.98176-30.86848-68.98176-68.76672 0-37.90848 30.97088-68.75648 68.98176-68.75648 38.016 0 68.95104 30.848 68.95104 68.75648-0.00512 37.89312-30.94016 68.76672-68.95104 68.76672z" fill="#A5A5EF" p-id="2055"></path><path d="M444.27776 849.92h-26.17344l-109.73696 122.88h40.11008zM579.72224 849.92h26.17856l109.73184 122.88h-40.11008z" fill="#A5A5EF" p-id="2056"></path></svg>