<svg t="1641208958929" class="icon" viewBox="0 0 1024 1024" version="1.1" xmlns="http://www.w3.org/2000/svg" p-id="1339" width="200" height="200"><path d="M1024 512c0 282.7776-229.2224 512-512 512S0 794.7776 0 512 229.2224 0 512 0s512 229.2224 512 512z" fill="#FF6D00" p-id="1340"></path><path d="M448 691.2a51.2 51.2 0 1 1 0 102.4 51.2 51.2 0 0 1 0-102.4z m256 0a51.2 51.2 0 1 1 0 102.4 51.2 51.2 0 0 1 0-102.4zM272.5888 307.2a97.792 97.792 0 0 1 94.8864 74.8288L376.2432 409.6H728.192c20.1984-0.0384 39.2448 15.68 51.5072 31.6672a66.5088 66.5088 0 0 1 11.968 56.6272l-25.2544 102.6432c-9.8432 41.1392-46.6944 64.9472-89.1648 65.0624H463.3984c-42.496-0.1024-79.3856-23.8976-89.2416-65.0624l-37.8496-154.0224a0.6272 0.6272 0 0 1 0-0.256l-13.056-53.248a52.096 52.096 0 0 0-50.6624-39.9104H227.84c-12.7232 0-23.04-10.2784-23.04-22.9504 0-12.672 10.3168-22.9504 23.04-22.9504z" fill="#FFFFFF" p-id="1341"></path></svg>