<svg t="1641209196955" class="icon" viewBox="0 0 1024 1024" version="1.1" xmlns="http://www.w3.org/2000/svg" p-id="1767" width="200" height="200"><path d="M512 0c282.7776 0 512 229.2224 512 512S794.7776 1024 512 1024 0 794.7776 0 512 229.2224 0 512 0" fill="#FF0808" p-id="1768"></path><path d="M768.1152 411.8912a59.904 59.904 0 0 0-47.36-21.632h-117.2992c9.856-34.6752 10.9056-71.2576 3.0976-106.4576a21.4656 21.4656 0 0 0-3.5072-7.552 67.84 67.84 0 0 0-131.9424 18.944h-0.384v15.232a80.2816 80.2816 0 0 1-68.2624 78.6944V755.2h273.1392a52.5824 52.5824 0 0 0 49.6768-40.4352l53.9904-252.5824a59.7632 59.7632 0 0 0-11.1488-50.2912z m-479.2832-21.632A45.7216 45.7216 0 0 0 243.2 436.096V709.376A45.696 45.696 0 0 0 288.5888 755.2h68.3776V390.272h-68.1344z" fill="#FFFFFF" p-id="1769"></path></svg>